<mxfile host="app.diagrams.net" agent="Mozilla/5.0 (Windows NT 10.0; Win64; x64) AppleWebKit/537.36 (KHTML, like Gecko) Chrome/137.0.0.0 Safari/537.36" version="27.1.5">
  <diagram id="C5RBs43oDa-KdzZeNtuy" name="Page-1">
    <mxGraphModel grid="1" page="1" gridSize="11" guides="1" tooltips="1" connect="1" arrows="1" fold="1" pageScale="1" pageWidth="1169" pageHeight="827" math="0" shadow="0">
      <root>
        <mxCell id="WIyWlLk6GJQsqaUBKTNV-0" />
        <mxCell id="WIyWlLk6GJQsqaUBKTNV-1" parent="WIyWlLk6GJQsqaUBKTNV-0" />
        <mxCell id="zkfFHV4jXpPFQw0GAbJ--0" value="Usuario" style="swimlane;fontStyle=2;align=center;verticalAlign=top;childLayout=stackLayout;horizontal=1;startSize=26;horizontalStack=0;resizeParent=1;resizeLast=0;collapsible=1;marginBottom=0;rounded=0;shadow=0;strokeWidth=1;" vertex="1" parent="WIyWlLk6GJQsqaUBKTNV-1">
          <mxGeometry x="109" y="126" width="200" height="268" as="geometry">
            <mxRectangle x="230" y="140" width="160" height="26" as="alternateBounds" />
          </mxGeometry>
        </mxCell>
        <mxCell id="zkfFHV4jXpPFQw0GAbJ--1" value="nick: str" style="text;align=left;verticalAlign=top;spacingLeft=4;spacingRight=4;overflow=hidden;rotatable=0;points=[[0,0.5],[1,0.5]];portConstraint=eastwest;" vertex="1" parent="zkfFHV4jXpPFQw0GAbJ--0">
          <mxGeometry y="26" width="200" height="26" as="geometry" />
        </mxCell>
        <mxCell id="zkfFHV4jXpPFQw0GAbJ--2" value="contraseña: str" style="text;align=left;verticalAlign=top;spacingLeft=4;spacingRight=4;overflow=hidden;rotatable=0;points=[[0,0.5],[1,0.5]];portConstraint=eastwest;rounded=0;shadow=0;html=0;" vertex="1" parent="zkfFHV4jXpPFQw0GAbJ--0">
          <mxGeometry y="52" width="200" height="26" as="geometry" />
        </mxCell>
        <mxCell id="zkfFHV4jXpPFQw0GAbJ--3" value="fechaNac: DTFecha" style="text;align=left;verticalAlign=top;spacingLeft=4;spacingRight=4;overflow=hidden;rotatable=0;points=[[0,0.5],[1,0.5]];portConstraint=eastwest;rounded=0;shadow=0;html=0;" vertex="1" parent="zkfFHV4jXpPFQw0GAbJ--0">
          <mxGeometry y="78" width="200" height="26" as="geometry" />
        </mxCell>
        <mxCell id="zkfFHV4jXpPFQw0GAbJ--4" value="" style="line;html=1;strokeWidth=1;align=left;verticalAlign=middle;spacingTop=-1;spacingLeft=3;spacingRight=3;rotatable=0;labelPosition=right;points=[];portConstraint=eastwest;" vertex="1" parent="zkfFHV4jXpPFQw0GAbJ--0">
          <mxGeometry y="104" width="200" height="8" as="geometry" />
        </mxCell>
        <mxCell id="ZnIZY8vGJmRkA5q2nl4W-21" value="getNick():str" style="text;align=left;verticalAlign=top;spacingLeft=4;spacingRight=4;overflow=hidden;rotatable=0;points=[[0,0.5],[1,0.5]];portConstraint=eastwest;" vertex="1" parent="zkfFHV4jXpPFQw0GAbJ--0">
          <mxGeometry y="112" width="200" height="26" as="geometry" />
        </mxCell>
        <mxCell id="QMvfmKs35bcrzf20AI7U-0" value=" crearComentario(str)" style="text;align=left;verticalAlign=top;spacingLeft=4;spacingRight=4;overflow=hidden;rotatable=0;points=[[0,0.5],[1,0.5]];portConstraint=eastwest;rounded=0;shadow=0;html=0;" vertex="1" parent="zkfFHV4jXpPFQw0GAbJ--0">
          <mxGeometry y="138" width="200" height="26" as="geometry" />
        </mxCell>
        <mxCell id="ZnIZY8vGJmRkA5q2nl4W-59" value="retornarComentarios()" style="text;align=left;verticalAlign=top;spacingLeft=4;spacingRight=4;overflow=hidden;rotatable=0;points=[[0,0.5],[1,0.5]];portConstraint=eastwest;rounded=0;shadow=0;html=0;" vertex="1" parent="zkfFHV4jXpPFQw0GAbJ--0">
          <mxGeometry y="164" width="200" height="26" as="geometry" />
        </mxCell>
        <mxCell id="QMvfmKs35bcrzf20AI7U-2" value="asociarComentarioUsuario() " style="text;align=left;verticalAlign=top;spacingLeft=4;spacingRight=4;overflow=hidden;rotatable=0;points=[[0,0.5],[1,0.5]];portConstraint=eastwest;rounded=0;shadow=0;html=0;" vertex="1" parent="zkfFHV4jXpPFQw0GAbJ--0">
          <mxGeometry y="190" width="200" height="26" as="geometry" />
        </mxCell>
        <mxCell id="QMvfmKs35bcrzf20AI7U-3" value=" asociarRespuestaComentario() " style="text;align=left;verticalAlign=top;spacingLeft=4;spacingRight=4;overflow=hidden;rotatable=0;points=[[0,0.5],[1,0.5]];portConstraint=eastwest;rounded=0;shadow=0;html=0;" vertex="1" parent="zkfFHV4jXpPFQw0GAbJ--0">
          <mxGeometry y="216" width="200" height="26" as="geometry" />
        </mxCell>
        <mxCell id="ZnIZY8vGJmRkA5q2nl4W-61" value="borrarComentario(DTComentario)" style="text;align=left;verticalAlign=top;spacingLeft=4;spacingRight=4;overflow=hidden;rotatable=0;points=[[0,0.5],[1,0.5]];portConstraint=eastwest;rounded=0;shadow=0;html=0;" vertex="1" parent="zkfFHV4jXpPFQw0GAbJ--0">
          <mxGeometry y="242" width="200" height="26" as="geometry" />
        </mxCell>
        <mxCell id="zkfFHV4jXpPFQw0GAbJ--6" value="Cliente" style="swimlane;fontStyle=0;align=center;verticalAlign=top;childLayout=stackLayout;horizontal=1;startSize=26;horizontalStack=0;resizeParent=1;resizeLast=0;collapsible=1;marginBottom=0;rounded=0;shadow=0;strokeWidth=1;" vertex="1" parent="WIyWlLk6GJQsqaUBKTNV-1">
          <mxGeometry x="19" y="436" width="160" height="138" as="geometry">
            <mxRectangle x="130" y="380" width="160" height="26" as="alternateBounds" />
          </mxGeometry>
        </mxCell>
        <mxCell id="zkfFHV4jXpPFQw0GAbJ--7" value="direccion: DTDireccion" style="text;align=left;verticalAlign=top;spacingLeft=4;spacingRight=4;overflow=hidden;rotatable=0;points=[[0,0.5],[1,0.5]];portConstraint=eastwest;" vertex="1" parent="zkfFHV4jXpPFQw0GAbJ--6">
          <mxGeometry y="26" width="160" height="26" as="geometry" />
        </mxCell>
        <mxCell id="zkfFHV4jXpPFQw0GAbJ--8" value="ciudad: str" style="text;align=left;verticalAlign=top;spacingLeft=4;spacingRight=4;overflow=hidden;rotatable=0;points=[[0,0.5],[1,0.5]];portConstraint=eastwest;rounded=0;shadow=0;html=0;" vertex="1" parent="zkfFHV4jXpPFQw0GAbJ--6">
          <mxGeometry y="52" width="160" height="26" as="geometry" />
        </mxCell>
        <mxCell id="zkfFHV4jXpPFQw0GAbJ--9" value="" style="line;html=1;strokeWidth=1;align=left;verticalAlign=middle;spacingTop=-1;spacingLeft=3;spacingRight=3;rotatable=0;labelPosition=right;points=[];portConstraint=eastwest;" vertex="1" parent="zkfFHV4jXpPFQw0GAbJ--6">
          <mxGeometry y="78" width="160" height="8" as="geometry" />
        </mxCell>
        <mxCell id="nEi6MOtToNHwv8my4Xsd-5" value=" getCliente(c):DTCliente" style="text;align=left;verticalAlign=top;spacingLeft=4;spacingRight=4;overflow=hidden;rotatable=0;points=[[0,0.5],[1,0.5]];portConstraint=eastwest;rounded=0;shadow=0;html=0;" vertex="1" parent="zkfFHV4jXpPFQw0GAbJ--6">
          <mxGeometry y="86" width="160" height="26" as="geometry" />
        </mxCell>
        <mxCell id="iK8rbPgS4fa-Ig37syLc-5" value=" asociarProd()" style="text;align=left;verticalAlign=top;spacingLeft=4;spacingRight=4;overflow=hidden;rotatable=0;points=[[0,0.5],[1,0.5]];portConstraint=eastwest;rounded=0;shadow=0;html=0;" vertex="1" parent="zkfFHV4jXpPFQw0GAbJ--6">
          <mxGeometry y="112" width="160" height="26" as="geometry" />
        </mxCell>
        <mxCell id="zkfFHV4jXpPFQw0GAbJ--12" value="" style="endArrow=block;endSize=10;endFill=0;shadow=0;strokeWidth=1;rounded=0;curved=0;edgeStyle=elbowEdgeStyle;elbow=vertical;" edge="1" parent="WIyWlLk6GJQsqaUBKTNV-1" source="zkfFHV4jXpPFQw0GAbJ--6" target="zkfFHV4jXpPFQw0GAbJ--0">
          <mxGeometry width="160" relative="1" as="geometry">
            <mxPoint x="99" y="279" as="sourcePoint" />
            <mxPoint x="99" y="279" as="targetPoint" />
          </mxGeometry>
        </mxCell>
        <mxCell id="zkfFHV4jXpPFQw0GAbJ--13" value="Vendedor" style="swimlane;fontStyle=0;align=center;verticalAlign=top;childLayout=stackLayout;horizontal=1;startSize=26;horizontalStack=0;resizeParent=1;resizeLast=0;collapsible=1;marginBottom=0;rounded=0;shadow=0;strokeWidth=1;" vertex="1" parent="WIyWlLk6GJQsqaUBKTNV-1">
          <mxGeometry x="229" y="436" width="200" height="138" as="geometry">
            <mxRectangle x="340" y="380" width="170" height="26" as="alternateBounds" />
          </mxGeometry>
        </mxCell>
        <mxCell id="zkfFHV4jXpPFQw0GAbJ--14" value="RUT:str" style="text;align=left;verticalAlign=top;spacingLeft=4;spacingRight=4;overflow=hidden;rotatable=0;points=[[0,0.5],[1,0.5]];portConstraint=eastwest;" vertex="1" parent="zkfFHV4jXpPFQw0GAbJ--13">
          <mxGeometry y="26" width="200" height="26" as="geometry" />
        </mxCell>
        <mxCell id="zkfFHV4jXpPFQw0GAbJ--15" value="" style="line;html=1;strokeWidth=1;align=left;verticalAlign=middle;spacingTop=-1;spacingLeft=3;spacingRight=3;rotatable=0;labelPosition=right;points=[];portConstraint=eastwest;" vertex="1" parent="zkfFHV4jXpPFQw0GAbJ--13">
          <mxGeometry y="52" width="200" height="8" as="geometry" />
        </mxCell>
        <mxCell id="ZnIZY8vGJmRkA5q2nl4W-24" value="añadirProdListaVendedor()" style="text;align=left;verticalAlign=top;spacingLeft=4;spacingRight=4;overflow=hidden;rotatable=0;points=[[0,0.5],[1,0.5]];portConstraint=eastwest;" vertex="1" parent="zkfFHV4jXpPFQw0GAbJ--13">
          <mxGeometry y="60" width="200" height="26" as="geometry" />
        </mxCell>
        <mxCell id="ZnIZY8vGJmRkA5q2nl4W-50" value="retornarProductos()" style="text;align=left;verticalAlign=top;spacingLeft=4;spacingRight=4;overflow=hidden;rotatable=0;points=[[0,0.5],[1,0.5]];portConstraint=eastwest;rounded=0;shadow=0;html=0;" vertex="1" parent="zkfFHV4jXpPFQw0GAbJ--13">
          <mxGeometry y="86" width="200" height="26" as="geometry" />
        </mxCell>
        <mxCell id="ZnIZY8vGJmRkA5q2nl4W-56" value="retornarDTVendedor():DTVendedor" style="text;align=left;verticalAlign=top;spacingLeft=4;spacingRight=4;overflow=hidden;rotatable=0;points=[[0,0.5],[1,0.5]];portConstraint=eastwest;rounded=0;shadow=0;html=0;" vertex="1" parent="zkfFHV4jXpPFQw0GAbJ--13">
          <mxGeometry y="112" width="200" height="26" as="geometry" />
        </mxCell>
        <mxCell id="zkfFHV4jXpPFQw0GAbJ--16" value="" style="endArrow=block;endSize=10;endFill=0;shadow=0;strokeWidth=1;rounded=0;curved=0;edgeStyle=elbowEdgeStyle;elbow=vertical;" edge="1" parent="WIyWlLk6GJQsqaUBKTNV-1" source="zkfFHV4jXpPFQw0GAbJ--13" target="zkfFHV4jXpPFQw0GAbJ--0">
          <mxGeometry width="160" relative="1" as="geometry">
            <mxPoint x="109" y="449" as="sourcePoint" />
            <mxPoint x="209" y="347" as="targetPoint" />
          </mxGeometry>
        </mxCell>
        <mxCell id="zkfFHV4jXpPFQw0GAbJ--17" value="Comentario" style="swimlane;fontStyle=0;align=center;verticalAlign=top;childLayout=stackLayout;horizontal=1;startSize=26;horizontalStack=0;resizeParent=1;resizeLast=0;collapsible=1;marginBottom=0;rounded=0;shadow=0;strokeWidth=1;" vertex="1" parent="WIyWlLk6GJQsqaUBKTNV-1">
          <mxGeometry x="499" y="196" width="206.58" height="164" as="geometry">
            <mxRectangle x="550" y="140" width="160" height="26" as="alternateBounds" />
          </mxGeometry>
        </mxCell>
        <mxCell id="TEmzEm2CTEU7AzNce9r2-0" value="id: int" style="text;align=left;verticalAlign=top;spacingLeft=4;spacingRight=4;overflow=hidden;rotatable=0;points=[[0,0.5],[1,0.5]];portConstraint=eastwest;" vertex="1" parent="zkfFHV4jXpPFQw0GAbJ--17">
          <mxGeometry y="26" width="206.58" height="26" as="geometry" />
        </mxCell>
        <mxCell id="A9oRpnt1r4qtiTk0RyAh-2" value="texto: str" style="text;align=left;verticalAlign=top;spacingLeft=4;spacingRight=4;overflow=hidden;rotatable=0;points=[[0,0.5],[1,0.5]];portConstraint=eastwest;" vertex="1" parent="zkfFHV4jXpPFQw0GAbJ--17">
          <mxGeometry y="52" width="206.58" height="26" as="geometry" />
        </mxCell>
        <mxCell id="zkfFHV4jXpPFQw0GAbJ--19" value="fecEscrito: DTFecha" style="text;align=left;verticalAlign=top;spacingLeft=4;spacingRight=4;overflow=hidden;rotatable=0;points=[[0,0.5],[1,0.5]];portConstraint=eastwest;rounded=0;shadow=0;html=0;" vertex="1" parent="zkfFHV4jXpPFQw0GAbJ--17">
          <mxGeometry y="78" width="206.58" height="26" as="geometry" />
        </mxCell>
        <mxCell id="zkfFHV4jXpPFQw0GAbJ--23" value="" style="line;html=1;strokeWidth=1;align=left;verticalAlign=middle;spacingTop=-1;spacingLeft=3;spacingRight=3;rotatable=0;labelPosition=right;points=[];portConstraint=eastwest;" vertex="1" parent="zkfFHV4jXpPFQw0GAbJ--17">
          <mxGeometry y="104" width="206.58" height="8" as="geometry" />
        </mxCell>
        <mxCell id="ZnIZY8vGJmRkA5q2nl4W-60" value="getDTComentario():DTComentario" style="text;align=left;verticalAlign=top;spacingLeft=4;spacingRight=4;overflow=hidden;rotatable=0;points=[[0,0.5],[1,0.5]];portConstraint=eastwest;rounded=0;shadow=0;html=0;" vertex="1" parent="zkfFHV4jXpPFQw0GAbJ--17">
          <mxGeometry y="112" width="206.58" height="26" as="geometry" />
        </mxCell>
        <mxCell id="ZnIZY8vGJmRkA5q2nl4W-62" value="borrarRespuesta()" style="text;align=left;verticalAlign=top;spacingLeft=4;spacingRight=4;overflow=hidden;rotatable=0;points=[[0,0.5],[1,0.5]];portConstraint=eastwest;" vertex="1" parent="zkfFHV4jXpPFQw0GAbJ--17">
          <mxGeometry y="138" width="206.58" height="26" as="geometry" />
        </mxCell>
        <mxCell id="zkfFHV4jXpPFQw0GAbJ--26" value="" style="endArrow=open;shadow=0;strokeWidth=1;rounded=0;curved=0;endFill=1;edgeStyle=elbowEdgeStyle;elbow=vertical;" edge="1" parent="WIyWlLk6GJQsqaUBKTNV-1" source="zkfFHV4jXpPFQw0GAbJ--0" target="zkfFHV4jXpPFQw0GAbJ--17">
          <mxGeometry x="0.5" y="41" relative="1" as="geometry">
            <mxPoint x="279" y="268" as="sourcePoint" />
            <mxPoint x="439" y="268" as="targetPoint" />
            <mxPoint x="-40" y="32" as="offset" />
          </mxGeometry>
        </mxCell>
        <mxCell id="zkfFHV4jXpPFQw0GAbJ--27" value="1" style="resizable=0;align=left;verticalAlign=bottom;labelBackgroundColor=none;fontSize=12;" connectable="0" vertex="1" parent="zkfFHV4jXpPFQw0GAbJ--26">
          <mxGeometry x="-1" relative="1" as="geometry">
            <mxPoint y="4" as="offset" />
          </mxGeometry>
        </mxCell>
        <mxCell id="zkfFHV4jXpPFQw0GAbJ--28" value="*" style="resizable=0;align=right;verticalAlign=bottom;labelBackgroundColor=none;fontSize=12;" connectable="0" vertex="1" parent="zkfFHV4jXpPFQw0GAbJ--26">
          <mxGeometry x="1" relative="1" as="geometry">
            <mxPoint x="-7" y="4" as="offset" />
          </mxGeometry>
        </mxCell>
        <mxCell id="A9oRpnt1r4qtiTk0RyAh-1" value="1" style="resizable=0;align=left;verticalAlign=bottom;labelBackgroundColor=none;fontSize=12;" connectable="0" vertex="1" parent="WIyWlLk6GJQsqaUBKTNV-1">
          <mxGeometry x="599" y="326" as="geometry">
            <mxPoint x="115" y="-87" as="offset" />
          </mxGeometry>
        </mxCell>
        <mxCell id="A9oRpnt1r4qtiTk0RyAh-3" value="*" style="resizable=0;align=right;verticalAlign=bottom;labelBackgroundColor=none;fontSize=12;" connectable="0" vertex="1" parent="WIyWlLk6GJQsqaUBKTNV-1">
          <mxGeometry x="726" y="296" as="geometry" />
        </mxCell>
        <mxCell id="A9oRpnt1r4qtiTk0RyAh-4" value="respuesta" style="text;html=1;align=center;verticalAlign=middle;whiteSpace=wrap;rounded=0;" vertex="1" parent="WIyWlLk6GJQsqaUBKTNV-1">
          <mxGeometry x="727.58" y="206" width="60" height="30" as="geometry" />
        </mxCell>
        <mxCell id="A9oRpnt1r4qtiTk0RyAh-11" value="" style="endArrow=open;endFill=1;endSize=6;html=1;rounded=0;" edge="1" parent="WIyWlLk6GJQsqaUBKTNV-1">
          <mxGeometry width="160" relative="1" as="geometry">
            <mxPoint x="705.58" y="236" as="sourcePoint" />
            <mxPoint x="707.58" y="276" as="targetPoint" />
            <Array as="points">
              <mxPoint x="807.58" y="236" />
              <mxPoint x="807.58" y="276" />
              <mxPoint x="757.58" y="276" />
            </Array>
          </mxGeometry>
        </mxCell>
        <mxCell id="A9oRpnt1r4qtiTk0RyAh-15" value="Producto" style="swimlane;fontStyle=0;align=center;verticalAlign=top;childLayout=stackLayout;horizontal=1;startSize=26;horizontalStack=0;resizeParent=1;resizeLast=0;collapsible=1;marginBottom=0;rounded=0;shadow=0;strokeWidth=1;" vertex="1" parent="WIyWlLk6GJQsqaUBKTNV-1">
          <mxGeometry x="619" y="606" width="220" height="374" as="geometry">
            <mxRectangle x="550" y="140" width="160" height="26" as="alternateBounds" />
          </mxGeometry>
        </mxCell>
        <mxCell id="A9oRpnt1r4qtiTk0RyAh-16" value="codigo: int" style="text;align=left;verticalAlign=top;spacingLeft=4;spacingRight=4;overflow=hidden;rotatable=0;points=[[0,0.5],[1,0.5]];portConstraint=eastwest;" vertex="1" parent="A9oRpnt1r4qtiTk0RyAh-15">
          <mxGeometry y="26" width="220" height="26" as="geometry" />
        </mxCell>
        <mxCell id="A9oRpnt1r4qtiTk0RyAh-17" value="stock: int" style="text;align=left;verticalAlign=top;spacingLeft=4;spacingRight=4;overflow=hidden;rotatable=0;points=[[0,0.5],[1,0.5]];portConstraint=eastwest;rounded=0;shadow=0;html=0;" vertex="1" parent="A9oRpnt1r4qtiTk0RyAh-15">
          <mxGeometry y="52" width="220" height="26" as="geometry" />
        </mxCell>
        <mxCell id="A9oRpnt1r4qtiTk0RyAh-24" value="precio: int" style="text;align=left;verticalAlign=top;spacingLeft=4;spacingRight=4;overflow=hidden;rotatable=0;points=[[0,0.5],[1,0.5]];portConstraint=eastwest;rounded=0;shadow=0;html=0;" vertex="1" parent="A9oRpnt1r4qtiTk0RyAh-15">
          <mxGeometry y="78" width="220" height="26" as="geometry" />
        </mxCell>
        <mxCell id="A9oRpnt1r4qtiTk0RyAh-25" value="nombre: str" style="text;align=left;verticalAlign=top;spacingLeft=4;spacingRight=4;overflow=hidden;rotatable=0;points=[[0,0.5],[1,0.5]];portConstraint=eastwest;rounded=0;shadow=0;html=0;" vertex="1" parent="A9oRpnt1r4qtiTk0RyAh-15">
          <mxGeometry y="104" width="220" height="26" as="geometry" />
        </mxCell>
        <mxCell id="A9oRpnt1r4qtiTk0RyAh-27" value="descripcion: str" style="text;align=left;verticalAlign=top;spacingLeft=4;spacingRight=4;overflow=hidden;rotatable=0;points=[[0,0.5],[1,0.5]];portConstraint=eastwest;rounded=0;shadow=0;html=0;" vertex="1" parent="A9oRpnt1r4qtiTk0RyAh-15">
          <mxGeometry y="130" width="220" height="26" as="geometry" />
        </mxCell>
        <mxCell id="A9oRpnt1r4qtiTk0RyAh-62" value="categoria (Ropa, &#xa;Electrodomestico, Otro): enum" style="text;align=left;verticalAlign=top;spacingLeft=4;spacingRight=4;overflow=hidden;rotatable=0;points=[[0,0.5],[1,0.5]];portConstraint=eastwest;rounded=0;shadow=0;html=0;" vertex="1" parent="A9oRpnt1r4qtiTk0RyAh-15">
          <mxGeometry y="156" width="220" height="54" as="geometry" />
        </mxCell>
        <mxCell id="A9oRpnt1r4qtiTk0RyAh-18" value="" style="line;html=1;strokeWidth=1;align=left;verticalAlign=middle;spacingTop=-1;spacingLeft=3;spacingRight=3;rotatable=0;labelPosition=right;points=[];portConstraint=eastwest;" vertex="1" parent="A9oRpnt1r4qtiTk0RyAh-15">
          <mxGeometry y="210" width="220" height="8" as="geometry" />
        </mxCell>
        <mxCell id="ZnIZY8vGJmRkA5q2nl4W-19" value="asociarProdVendedor(str)" style="text;align=left;verticalAlign=top;spacingLeft=4;spacingRight=4;overflow=hidden;rotatable=0;points=[[0,0.5],[1,0.5]];portConstraint=eastwest;rounded=0;shadow=0;html=0;" vertex="1" parent="A9oRpnt1r4qtiTk0RyAh-15">
          <mxGeometry y="218" width="220" height="26" as="geometry" />
        </mxCell>
        <mxCell id="ZnIZY8vGJmRkA5q2nl4W-47" value="retornarDTProducto():DTProducto" style="text;align=left;verticalAlign=top;spacingLeft=4;spacingRight=4;overflow=hidden;rotatable=0;points=[[0,0.5],[1,0.5]];portConstraint=eastwest;rounded=0;shadow=0;html=0;" vertex="1" parent="A9oRpnt1r4qtiTk0RyAh-15">
          <mxGeometry y="244" width="220" height="26" as="geometry" />
        </mxCell>
        <mxCell id="ZnIZY8vGJmRkA5q2nl4W-0" value="productoEnPomo(DTProducto): bool&#xa;" style="text;align=left;verticalAlign=top;spacingLeft=4;spacingRight=4;overflow=hidden;rotatable=0;points=[[0,0.5],[1,0.5]];portConstraint=eastwest;rounded=0;shadow=0;html=0;" vertex="1" parent="A9oRpnt1r4qtiTk0RyAh-15">
          <mxGeometry y="270" width="220" height="26" as="geometry" />
        </mxCell>
        <mxCell id="ZnIZY8vGJmRkA5q2nl4W-63" value="desasociarProducto()" style="text;align=left;verticalAlign=top;spacingLeft=4;spacingRight=4;overflow=hidden;rotatable=0;points=[[0,0.5],[1,0.5]];portConstraint=eastwest;rounded=0;shadow=0;html=0;" vertex="1" parent="A9oRpnt1r4qtiTk0RyAh-15">
          <mxGeometry y="296" width="220" height="26" as="geometry" />
        </mxCell>
        <mxCell id="ZnIZY8vGJmRkA5q2nl4W-66" value="retornarProductosPendientes()" style="text;align=left;verticalAlign=top;spacingLeft=4;spacingRight=4;overflow=hidden;rotatable=0;points=[[0,0.5],[1,0.5]];portConstraint=eastwest;rounded=0;shadow=0;html=0;" vertex="1" parent="A9oRpnt1r4qtiTk0RyAh-15">
          <mxGeometry y="322" width="220" height="26" as="geometry" />
        </mxCell>
        <mxCell id="QMvfmKs35bcrzf20AI7U-1" value="asociarComentarioProducto() " style="text;align=left;verticalAlign=top;spacingLeft=4;spacingRight=4;overflow=hidden;rotatable=0;points=[[0,0.5],[1,0.5]];portConstraint=eastwest;rounded=0;shadow=0;html=0;" vertex="1" parent="A9oRpnt1r4qtiTk0RyAh-15">
          <mxGeometry y="348" width="220" height="26" as="geometry" />
        </mxCell>
        <mxCell id="A9oRpnt1r4qtiTk0RyAh-36" value="Promocion" style="swimlane;fontStyle=0;align=center;verticalAlign=top;childLayout=stackLayout;horizontal=1;startSize=26;horizontalStack=0;resizeParent=1;resizeLast=0;collapsible=1;marginBottom=0;rounded=0;shadow=0;strokeWidth=1;" vertex="1" parent="WIyWlLk6GJQsqaUBKTNV-1">
          <mxGeometry x="919.78" y="306" width="249.22" height="230" as="geometry">
            <mxRectangle x="550" y="140" width="160" height="26" as="alternateBounds" />
          </mxGeometry>
        </mxCell>
        <mxCell id="A9oRpnt1r4qtiTk0RyAh-37" value="nom: str" style="text;align=left;verticalAlign=top;spacingLeft=4;spacingRight=4;overflow=hidden;rotatable=0;points=[[0,0.5],[1,0.5]];portConstraint=eastwest;" vertex="1" parent="A9oRpnt1r4qtiTk0RyAh-36">
          <mxGeometry y="26" width="249.22" height="26" as="geometry" />
        </mxCell>
        <mxCell id="A9oRpnt1r4qtiTk0RyAh-38" value="desc: str" style="text;align=left;verticalAlign=top;spacingLeft=4;spacingRight=4;overflow=hidden;rotatable=0;points=[[0,0.5],[1,0.5]];portConstraint=eastwest;rounded=0;shadow=0;html=0;" vertex="1" parent="A9oRpnt1r4qtiTk0RyAh-36">
          <mxGeometry y="52" width="249.22" height="26" as="geometry" />
        </mxCell>
        <mxCell id="A9oRpnt1r4qtiTk0RyAh-39" value="fedVencimiento: DTFecha" style="text;align=left;verticalAlign=top;spacingLeft=4;spacingRight=4;overflow=hidden;rotatable=0;points=[[0,0.5],[1,0.5]];portConstraint=eastwest;rounded=0;shadow=0;html=0;" vertex="1" parent="A9oRpnt1r4qtiTk0RyAh-36">
          <mxGeometry y="78" width="249.22" height="26" as="geometry" />
        </mxCell>
        <mxCell id="A9oRpnt1r4qtiTk0RyAh-42" value="" style="line;html=1;strokeWidth=1;align=left;verticalAlign=middle;spacingTop=-1;spacingLeft=3;spacingRight=3;rotatable=0;labelPosition=right;points=[];portConstraint=eastwest;" vertex="1" parent="A9oRpnt1r4qtiTk0RyAh-36">
          <mxGeometry y="104" width="249.22" height="22" as="geometry" />
        </mxCell>
        <mxCell id="ZnIZY8vGJmRkA5q2nl4W-1" value="agregarProdProm(DTProducto)&#xa;" style="text;align=left;verticalAlign=top;spacingLeft=4;spacingRight=4;overflow=hidden;rotatable=0;points=[[0,0.5],[1,0.5]];portConstraint=eastwest;rounded=0;shadow=0;html=0;" vertex="1" parent="A9oRpnt1r4qtiTk0RyAh-36">
          <mxGeometry y="126" width="249.22" height="26" as="geometry" />
        </mxCell>
        <mxCell id="ZnIZY8vGJmRkA5q2nl4W-8" value="retornarDTPromocion():DTPromocion" style="text;align=left;verticalAlign=top;spacingLeft=4;spacingRight=4;overflow=hidden;rotatable=0;points=[[0,0.5],[1,0.5]];portConstraint=eastwest;" vertex="1" parent="A9oRpnt1r4qtiTk0RyAh-36">
          <mxGeometry y="152" width="249.22" height="26" as="geometry" />
        </mxCell>
        <mxCell id="ZnIZY8vGJmRkA5q2nl4W-10" value="retornarDTProdPromocion:set(DTProdProm)&#xa;" style="text;align=left;verticalAlign=top;spacingLeft=4;spacingRight=4;overflow=hidden;rotatable=0;points=[[0,0.5],[1,0.5]];portConstraint=eastwest;" vertex="1" parent="A9oRpnt1r4qtiTk0RyAh-36">
          <mxGeometry y="178" width="249.22" height="26" as="geometry" />
        </mxCell>
        <mxCell id="A9oRpnt1r4qtiTk0RyAh-43" value="ProdPromocion" style="swimlane;fontStyle=0;align=center;verticalAlign=top;childLayout=stackLayout;horizontal=1;startSize=26;horizontalStack=0;resizeParent=1;resizeLast=0;collapsible=1;marginBottom=0;rounded=0;shadow=0;strokeWidth=1;" vertex="1" parent="WIyWlLk6GJQsqaUBKTNV-1">
          <mxGeometry x="899" y="646" width="270" height="164" as="geometry">
            <mxRectangle x="550" y="140" width="160" height="26" as="alternateBounds" />
          </mxGeometry>
        </mxCell>
        <mxCell id="A9oRpnt1r4qtiTk0RyAh-44" value="cantMinima" style="text;align=left;verticalAlign=top;spacingLeft=4;spacingRight=4;overflow=hidden;rotatable=0;points=[[0,0.5],[1,0.5]];portConstraint=eastwest;" vertex="1" parent="A9oRpnt1r4qtiTk0RyAh-43">
          <mxGeometry y="26" width="270" height="26" as="geometry" />
        </mxCell>
        <mxCell id="A9oRpnt1r4qtiTk0RyAh-45" value="descuento: int" style="text;align=left;verticalAlign=top;spacingLeft=4;spacingRight=4;overflow=hidden;rotatable=0;points=[[0,0.5],[1,0.5]];portConstraint=eastwest;rounded=0;shadow=0;html=0;" vertex="1" parent="A9oRpnt1r4qtiTk0RyAh-43">
          <mxGeometry y="52" width="270" height="26" as="geometry" />
        </mxCell>
        <mxCell id="A9oRpnt1r4qtiTk0RyAh-46" value="" style="line;html=1;strokeWidth=1;align=left;verticalAlign=middle;spacingTop=-1;spacingLeft=3;spacingRight=3;rotatable=0;labelPosition=right;points=[];portConstraint=eastwest;" vertex="1" parent="A9oRpnt1r4qtiTk0RyAh-43">
          <mxGeometry y="78" width="270" height="8" as="geometry" />
        </mxCell>
        <mxCell id="ZnIZY8vGJmRkA5q2nl4W-2" value="retornarDTProdPromocion():DTProdPromocion" style="text;align=left;verticalAlign=top;spacingLeft=4;spacingRight=4;overflow=hidden;rotatable=0;points=[[0,0.5],[1,0.5]];portConstraint=eastwest;rounded=0;shadow=0;html=0;" vertex="1" parent="A9oRpnt1r4qtiTk0RyAh-43">
          <mxGeometry y="86" width="270" height="26" as="geometry" />
        </mxCell>
        <mxCell id="A9oRpnt1r4qtiTk0RyAh-49" value="Compra" style="swimlane;fontStyle=0;align=center;verticalAlign=top;childLayout=stackLayout;horizontal=1;startSize=26;horizontalStack=0;resizeParent=1;resizeLast=0;collapsible=1;marginBottom=0;rounded=0;shadow=0;strokeWidth=1;" vertex="1" parent="WIyWlLk6GJQsqaUBKTNV-1">
          <mxGeometry x="16" y="766" width="193" height="256" as="geometry">
            <mxRectangle x="550" y="140" width="160" height="26" as="alternateBounds" />
          </mxGeometry>
        </mxCell>
        <mxCell id="A9oRpnt1r4qtiTk0RyAh-50" value="cantProd: int" style="text;align=left;verticalAlign=top;spacingLeft=4;spacingRight=4;overflow=hidden;rotatable=0;points=[[0,0.5],[1,0.5]];portConstraint=eastwest;" vertex="1" parent="A9oRpnt1r4qtiTk0RyAh-49">
          <mxGeometry y="26" width="193" height="26" as="geometry" />
        </mxCell>
        <mxCell id="A9oRpnt1r4qtiTk0RyAh-51" value="fecCompra: DTFecha" style="text;align=left;verticalAlign=top;spacingLeft=4;spacingRight=4;overflow=hidden;rotatable=0;points=[[0,0.5],[1,0.5]];portConstraint=eastwest;rounded=0;shadow=0;html=0;" vertex="1" parent="A9oRpnt1r4qtiTk0RyAh-49">
          <mxGeometry y="52" width="193" height="26" as="geometry" />
        </mxCell>
        <mxCell id="A9oRpnt1r4qtiTk0RyAh-52" value="\montoTotal: float" style="text;align=left;verticalAlign=top;spacingLeft=4;spacingRight=4;overflow=hidden;rotatable=0;points=[[0,0.5],[1,0.5]];portConstraint=eastwest;rounded=0;shadow=0;html=0;" vertex="1" parent="A9oRpnt1r4qtiTk0RyAh-49">
          <mxGeometry y="78" width="193" height="26" as="geometry" />
        </mxCell>
        <mxCell id="A9oRpnt1r4qtiTk0RyAh-53" value="" style="line;html=1;strokeWidth=1;align=left;verticalAlign=middle;spacingTop=-1;spacingLeft=3;spacingRight=3;rotatable=0;labelPosition=right;points=[];portConstraint=eastwest;" vertex="1" parent="A9oRpnt1r4qtiTk0RyAh-49">
          <mxGeometry y="104" width="193" height="22" as="geometry" />
        </mxCell>
        <mxCell id="iK8rbPgS4fa-Ig37syLc-1" value="agregoProd(DTProducto)&#xa;" style="text;align=left;verticalAlign=top;spacingLeft=4;spacingRight=4;overflow=hidden;rotatable=0;points=[[0,0.5],[1,0.5]];portConstraint=eastwest;rounded=0;shadow=0;html=0;" vertex="1" parent="A9oRpnt1r4qtiTk0RyAh-49">
          <mxGeometry y="126" width="193" height="26" as="geometry" />
        </mxCell>
        <mxCell id="iK8rbPgS4fa-Ig37syLc-2" value="getCompra():DTCompra" style="text;align=left;verticalAlign=top;spacingLeft=4;spacingRight=4;overflow=hidden;rotatable=0;points=[[0,0.5],[1,0.5]];portConstraint=eastwest;rounded=0;shadow=0;html=0;" vertex="1" parent="A9oRpnt1r4qtiTk0RyAh-49">
          <mxGeometry y="152" width="193" height="26" as="geometry" />
        </mxCell>
        <mxCell id="ZnIZY8vGJmRkA5q2nl4W-68" value="asociarCompra(DTCliente)&#xa;" style="text;align=left;verticalAlign=top;spacingLeft=4;spacingRight=4;overflow=hidden;rotatable=0;points=[[0,0.5],[1,0.5]];portConstraint=eastwest;rounded=0;shadow=0;html=0;" vertex="1" parent="A9oRpnt1r4qtiTk0RyAh-49">
          <mxGeometry y="178" width="193" height="26" as="geometry" />
        </mxCell>
        <mxCell id="iK8rbPgS4fa-Ig37syLc-4" value="retornarDTCompra():DTCompra" style="text;align=left;verticalAlign=top;spacingLeft=4;spacingRight=4;overflow=hidden;rotatable=0;points=[[0,0.5],[1,0.5]];portConstraint=eastwest;rounded=0;shadow=0;html=0;" vertex="1" parent="A9oRpnt1r4qtiTk0RyAh-49">
          <mxGeometry y="204" width="193" height="26" as="geometry" />
        </mxCell>
        <mxCell id="ZnIZY8vGJmRkA5q2nl4W-73" value="enviarProducto()" style="text;align=left;verticalAlign=top;spacingLeft=4;spacingRight=4;overflow=hidden;rotatable=0;points=[[0,0.5],[1,0.5]];portConstraint=eastwest;rounded=0;shadow=0;html=0;" vertex="1" parent="A9oRpnt1r4qtiTk0RyAh-49">
          <mxGeometry y="230" width="193" height="26" as="geometry" />
        </mxCell>
        <mxCell id="A9oRpnt1r4qtiTk0RyAh-54" value="ProdComprado" style="swimlane;fontStyle=0;align=center;verticalAlign=top;childLayout=stackLayout;horizontal=1;startSize=26;horizontalStack=0;resizeParent=1;resizeLast=0;collapsible=1;marginBottom=0;rounded=0;shadow=0;strokeWidth=1;" vertex="1" parent="WIyWlLk6GJQsqaUBKTNV-1">
          <mxGeometry x="299" y="786" width="180" height="198" as="geometry">
            <mxRectangle x="550" y="140" width="160" height="26" as="alternateBounds" />
          </mxGeometry>
        </mxCell>
        <mxCell id="A9oRpnt1r4qtiTk0RyAh-55" value="cant: int" style="text;align=left;verticalAlign=top;spacingLeft=4;spacingRight=4;overflow=hidden;rotatable=0;points=[[0,0.5],[1,0.5]];portConstraint=eastwest;" vertex="1" parent="A9oRpnt1r4qtiTk0RyAh-54">
          <mxGeometry y="26" width="180" height="26" as="geometry" />
        </mxCell>
        <mxCell id="A9oRpnt1r4qtiTk0RyAh-56" value="enviado: bool" style="text;align=left;verticalAlign=top;spacingLeft=4;spacingRight=4;overflow=hidden;rotatable=0;points=[[0,0.5],[1,0.5]];portConstraint=eastwest;rounded=0;shadow=0;html=0;" vertex="1" parent="A9oRpnt1r4qtiTk0RyAh-54">
          <mxGeometry y="52" width="180" height="26" as="geometry" />
        </mxCell>
        <mxCell id="A9oRpnt1r4qtiTk0RyAh-58" value="" style="line;html=1;strokeWidth=1;align=left;verticalAlign=middle;spacingTop=-1;spacingLeft=3;spacingRight=3;rotatable=0;labelPosition=right;points=[];portConstraint=eastwest;" vertex="1" parent="A9oRpnt1r4qtiTk0RyAh-54">
          <mxGeometry y="78" width="180" height="16" as="geometry" />
        </mxCell>
        <mxCell id="iK8rbPgS4fa-Ig37syLc-0" value="tieneArt(DTProducto):bool&#xa;" style="text;align=left;verticalAlign=top;spacingLeft=4;spacingRight=4;overflow=hidden;rotatable=0;points=[[0,0.5],[1,0.5]];portConstraint=eastwest;rounded=0;shadow=0;html=0;" vertex="1" parent="A9oRpnt1r4qtiTk0RyAh-54">
          <mxGeometry y="94" width="180" height="26" as="geometry" />
        </mxCell>
        <mxCell id="ZnIZY8vGJmRkA5q2nl4W-65" value=" getProductos():DTProducto" style="text;align=left;verticalAlign=top;spacingLeft=4;spacingRight=4;overflow=hidden;rotatable=0;points=[[0,0.5],[1,0.5]];portConstraint=eastwest;rounded=0;shadow=0;html=0;" vertex="1" parent="A9oRpnt1r4qtiTk0RyAh-54">
          <mxGeometry y="120" width="180" height="26" as="geometry" />
        </mxCell>
        <mxCell id="iK8rbPgS4fa-Ig37syLc-3" value="getEnviado():bool" style="text;align=left;verticalAlign=top;spacingLeft=4;spacingRight=4;overflow=hidden;rotatable=0;points=[[0,0.5],[1,0.5]];portConstraint=eastwest;rounded=0;shadow=0;html=0;" vertex="1" parent="A9oRpnt1r4qtiTk0RyAh-54">
          <mxGeometry y="146" width="180" height="26" as="geometry" />
        </mxCell>
        <mxCell id="ZnIZY8vGJmRkA5q2nl4W-72" value="enviarProducto(DTProducto)" style="text;align=left;verticalAlign=top;spacingLeft=4;spacingRight=4;overflow=hidden;rotatable=0;points=[[0,0.5],[1,0.5]];portConstraint=eastwest;rounded=0;shadow=0;html=0;" vertex="1" parent="A9oRpnt1r4qtiTk0RyAh-54">
          <mxGeometry y="172" width="180" height="26" as="geometry" />
        </mxCell>
        <mxCell id="A9oRpnt1r4qtiTk0RyAh-63" value="DTFecha" style="swimlane;fontStyle=0;align=center;verticalAlign=top;childLayout=stackLayout;horizontal=1;startSize=26;horizontalStack=0;resizeParent=1;resizeLast=0;collapsible=1;marginBottom=0;rounded=0;shadow=0;strokeWidth=1;" vertex="1" parent="WIyWlLk6GJQsqaUBKTNV-1">
          <mxGeometry x="854" y="901" width="160" height="142" as="geometry">
            <mxRectangle x="550" y="140" width="160" height="26" as="alternateBounds" />
          </mxGeometry>
        </mxCell>
        <mxCell id="A9oRpnt1r4qtiTk0RyAh-64" value="dia: int" style="text;align=left;verticalAlign=top;spacingLeft=4;spacingRight=4;overflow=hidden;rotatable=0;points=[[0,0.5],[1,0.5]];portConstraint=eastwest;" vertex="1" parent="A9oRpnt1r4qtiTk0RyAh-63">
          <mxGeometry y="26" width="160" height="26" as="geometry" />
        </mxCell>
        <mxCell id="A9oRpnt1r4qtiTk0RyAh-65" value="mes: int" style="text;align=left;verticalAlign=top;spacingLeft=4;spacingRight=4;overflow=hidden;rotatable=0;points=[[0,0.5],[1,0.5]];portConstraint=eastwest;rounded=0;shadow=0;html=0;" vertex="1" parent="A9oRpnt1r4qtiTk0RyAh-63">
          <mxGeometry y="52" width="160" height="26" as="geometry" />
        </mxCell>
        <mxCell id="A9oRpnt1r4qtiTk0RyAh-66" value="año: int" style="text;align=left;verticalAlign=top;spacingLeft=4;spacingRight=4;overflow=hidden;rotatable=0;points=[[0,0.5],[1,0.5]];portConstraint=eastwest;rounded=0;shadow=0;html=0;" vertex="1" parent="A9oRpnt1r4qtiTk0RyAh-63">
          <mxGeometry y="78" width="160" height="26" as="geometry" />
        </mxCell>
        <mxCell id="A9oRpnt1r4qtiTk0RyAh-67" value="" style="line;html=1;strokeWidth=1;align=left;verticalAlign=middle;spacingTop=-1;spacingLeft=3;spacingRight=3;rotatable=0;labelPosition=right;points=[];portConstraint=eastwest;" vertex="1" parent="A9oRpnt1r4qtiTk0RyAh-63">
          <mxGeometry y="104" width="160" height="38" as="geometry" />
        </mxCell>
        <mxCell id="A9oRpnt1r4qtiTk0RyAh-73" value="DTDireccion" style="swimlane;fontStyle=0;align=center;verticalAlign=top;childLayout=stackLayout;horizontal=1;startSize=26;horizontalStack=0;resizeParent=1;resizeLast=0;collapsible=1;marginBottom=0;rounded=0;shadow=0;strokeWidth=1;" vertex="1" parent="WIyWlLk6GJQsqaUBKTNV-1">
          <mxGeometry x="1054" y="901" width="160" height="142" as="geometry">
            <mxRectangle x="550" y="140" width="160" height="26" as="alternateBounds" />
          </mxGeometry>
        </mxCell>
        <mxCell id="A9oRpnt1r4qtiTk0RyAh-74" value="calle: str" style="text;align=left;verticalAlign=top;spacingLeft=4;spacingRight=4;overflow=hidden;rotatable=0;points=[[0,0.5],[1,0.5]];portConstraint=eastwest;" vertex="1" parent="A9oRpnt1r4qtiTk0RyAh-73">
          <mxGeometry y="26" width="160" height="26" as="geometry" />
        </mxCell>
        <mxCell id="A9oRpnt1r4qtiTk0RyAh-75" value="nroPuerta: int" style="text;align=left;verticalAlign=top;spacingLeft=4;spacingRight=4;overflow=hidden;rotatable=0;points=[[0,0.5],[1,0.5]];portConstraint=eastwest;rounded=0;shadow=0;html=0;" vertex="1" parent="A9oRpnt1r4qtiTk0RyAh-73">
          <mxGeometry y="52" width="160" height="26" as="geometry" />
        </mxCell>
        <mxCell id="A9oRpnt1r4qtiTk0RyAh-77" value="" style="line;html=1;strokeWidth=1;align=left;verticalAlign=middle;spacingTop=-1;spacingLeft=3;spacingRight=3;rotatable=0;labelPosition=right;points=[];portConstraint=eastwest;" vertex="1" parent="A9oRpnt1r4qtiTk0RyAh-73">
          <mxGeometry y="78" width="160" height="38" as="geometry" />
        </mxCell>
        <mxCell id="A9oRpnt1r4qtiTk0RyAh-78" value="Controller" style="swimlane;fontStyle=0;align=center;verticalAlign=top;childLayout=stackLayout;horizontal=1;startSize=26;horizontalStack=0;resizeParent=1;resizeLast=0;collapsible=1;marginBottom=0;rounded=0;shadow=0;strokeWidth=1;" vertex="1" parent="WIyWlLk6GJQsqaUBKTNV-1">
          <mxGeometry x="-341" y="88" width="290" height="758" as="geometry">
            <mxRectangle x="550" y="140" width="160" height="26" as="alternateBounds" />
          </mxGeometry>
        </mxCell>
        <mxCell id="A9oRpnt1r4qtiTk0RyAh-81" value="" style="line;html=1;strokeWidth=1;align=left;verticalAlign=middle;spacingTop=-1;spacingLeft=3;spacingRight=3;rotatable=0;labelPosition=right;points=[];portConstraint=eastwest;" vertex="1" parent="A9oRpnt1r4qtiTk0RyAh-78">
          <mxGeometry y="26" width="290" height="30" as="geometry" />
        </mxCell>
        <mxCell id="ZnIZY8vGJmRkA5q2nl4W-26" value="altaUsuario(DTUsuario)" style="text;align=left;verticalAlign=top;spacingLeft=4;spacingRight=4;overflow=hidden;rotatable=0;points=[[0,0.5],[1,0.5]];portConstraint=eastwest;" vertex="1" parent="A9oRpnt1r4qtiTk0RyAh-78">
          <mxGeometry y="56" width="290" height="26" as="geometry" />
        </mxCell>
        <mxCell id="ZnIZY8vGJmRkA5q2nl4W-28" value="listarNickVendedor():set(str)" style="text;align=left;verticalAlign=top;spacingLeft=4;spacingRight=4;overflow=hidden;rotatable=0;points=[[0,0.5],[1,0.5]];portConstraint=eastwest;" vertex="1" parent="A9oRpnt1r4qtiTk0RyAh-78">
          <mxGeometry y="82" width="290" height="26" as="geometry" />
        </mxCell>
        <mxCell id="ZnIZY8vGJmRkA5q2nl4W-31" value="selectVendedor(str)" style="text;align=left;verticalAlign=top;spacingLeft=4;spacingRight=4;overflow=hidden;rotatable=0;points=[[0,0.5],[1,0.5]];portConstraint=eastwest;" vertex="1" parent="A9oRpnt1r4qtiTk0RyAh-78">
          <mxGeometry y="108" width="290" height="26" as="geometry" />
        </mxCell>
        <mxCell id="ZnIZY8vGJmRkA5q2nl4W-32" value="ingProd(DTProducto)" style="text;align=left;verticalAlign=top;spacingLeft=4;spacingRight=4;overflow=hidden;rotatable=0;points=[[0,0.5],[1,0.5]];portConstraint=eastwest;" vertex="1" parent="A9oRpnt1r4qtiTk0RyAh-78">
          <mxGeometry y="134" width="290" height="26" as="geometry" />
        </mxCell>
        <mxCell id="ZnIZY8vGJmRkA5q2nl4W-37" value="listarProd():set(DTProducto)&#xa;" style="text;align=left;verticalAlign=top;spacingLeft=4;spacingRight=4;overflow=hidden;rotatable=0;points=[[0,0.5],[1,0.5]];portConstraint=eastwest;" vertex="1" parent="A9oRpnt1r4qtiTk0RyAh-78">
          <mxGeometry y="160" width="290" height="26" as="geometry" />
        </mxCell>
        <mxCell id="ZnIZY8vGJmRkA5q2nl4W-36" value="selectProd(DTProducto):DTProducto&#xa;" style="text;align=left;verticalAlign=top;spacingLeft=4;spacingRight=4;overflow=hidden;rotatable=0;points=[[0,0.5],[1,0.5]];portConstraint=eastwest;" vertex="1" parent="A9oRpnt1r4qtiTk0RyAh-78">
          <mxGeometry y="186" width="290" height="26" as="geometry" />
        </mxCell>
        <mxCell id="ZnIZY8vGJmRkA5q2nl4W-14" value="ingDatos(DTPromocion):set(str)&#xa;" style="text;align=left;verticalAlign=top;spacingLeft=4;spacingRight=4;overflow=hidden;rotatable=0;points=[[0,0.5],[1,0.5]];portConstraint=eastwest;" vertex="1" parent="A9oRpnt1r4qtiTk0RyAh-78">
          <mxGeometry y="212" width="290" height="26" as="geometry" />
        </mxCell>
        <mxCell id="ZnIZY8vGJmRkA5q2nl4W-16" value="seleccionarVendedor(str): set(DTProducto)&#xa;" style="text;align=left;verticalAlign=top;spacingLeft=4;spacingRight=4;overflow=hidden;rotatable=0;points=[[0,0.5],[1,0.5]];portConstraint=eastwest;" vertex="1" parent="A9oRpnt1r4qtiTk0RyAh-78">
          <mxGeometry y="238" width="290" height="26" as="geometry" />
        </mxCell>
        <mxCell id="ZnIZY8vGJmRkA5q2nl4W-15" value="agregarProdProm(set(DTProducto))" style="text;align=left;verticalAlign=top;spacingLeft=4;spacingRight=4;overflow=hidden;rotatable=0;points=[[0,0.5],[1,0.5]];portConstraint=eastwest;" vertex="1" parent="A9oRpnt1r4qtiTk0RyAh-78">
          <mxGeometry y="264" width="290" height="26" as="geometry" />
        </mxCell>
        <mxCell id="ZnIZY8vGJmRkA5q2nl4W-13" value="listarPromociones():set(DTPromocion)&#xa;" style="text;align=left;verticalAlign=top;spacingLeft=4;spacingRight=4;overflow=hidden;rotatable=0;points=[[0,0.5],[1,0.5]];portConstraint=eastwest;" vertex="1" parent="A9oRpnt1r4qtiTk0RyAh-78">
          <mxGeometry y="290" width="290" height="26" as="geometry" />
        </mxCell>
        <mxCell id="ZnIZY8vGJmRkA5q2nl4W-12" value="selectPromo(str):DTProdProm&#xa;" style="text;align=left;verticalAlign=top;spacingLeft=4;spacingRight=4;overflow=hidden;rotatable=0;points=[[0,0.5],[1,0.5]];portConstraint=eastwest;" vertex="1" parent="A9oRpnt1r4qtiTk0RyAh-78">
          <mxGeometry y="316" width="290" height="26" as="geometry" />
        </mxCell>
        <mxCell id="nEi6MOtToNHwv8my4Xsd-4" value="listarClientes():set(str)" style="text;align=left;verticalAlign=top;spacingLeft=4;spacingRight=4;overflow=hidden;rotatable=0;points=[[0,0.5],[1,0.5]];portConstraint=eastwest;" vertex="1" parent="A9oRpnt1r4qtiTk0RyAh-78">
          <mxGeometry y="342" width="290" height="26" as="geometry" />
        </mxCell>
        <mxCell id="nEi6MOtToNHwv8my4Xsd-3" value="seleccionerCliente(DTCliente):set(DTProducto) " style="text;align=left;verticalAlign=top;spacingLeft=4;spacingRight=4;overflow=hidden;rotatable=0;points=[[0,0.5],[1,0.5]];portConstraint=eastwest;" vertex="1" parent="A9oRpnt1r4qtiTk0RyAh-78">
          <mxGeometry y="368" width="290" height="26" as="geometry" />
        </mxCell>
        <mxCell id="nEi6MOtToNHwv8my4Xsd-2" value="agregarProducto(DTProducto) " style="text;align=left;verticalAlign=top;spacingLeft=4;spacingRight=4;overflow=hidden;rotatable=0;points=[[0,0.5],[1,0.5]];portConstraint=eastwest;" vertex="1" parent="A9oRpnt1r4qtiTk0RyAh-78">
          <mxGeometry y="394" width="290" height="26" as="geometry" />
        </mxCell>
        <mxCell id="nEi6MOtToNHwv8my4Xsd-1" value="verDetalleCompra():DTCompra " style="text;align=left;verticalAlign=top;spacingLeft=4;spacingRight=4;overflow=hidden;rotatable=0;points=[[0,0.5],[1,0.5]];portConstraint=eastwest;" vertex="1" parent="A9oRpnt1r4qtiTk0RyAh-78">
          <mxGeometry y="420" width="290" height="26" as="geometry" />
        </mxCell>
        <mxCell id="nEi6MOtToNHwv8my4Xsd-0" value="confirmarCompra() " style="text;align=left;verticalAlign=top;spacingLeft=4;spacingRight=4;overflow=hidden;rotatable=0;points=[[0,0.5],[1,0.5]];portConstraint=eastwest;" vertex="1" parent="A9oRpnt1r4qtiTk0RyAh-78">
          <mxGeometry y="446" width="290" height="26" as="geometry" />
        </mxCell>
        <mxCell id="ZnIZY8vGJmRkA5q2nl4W-38" value="listarNicknamesUsuario():set(str)" style="text;align=left;verticalAlign=top;spacingLeft=4;spacingRight=4;overflow=hidden;rotatable=0;points=[[0,0.5],[1,0.5]];portConstraint=eastwest;" vertex="1" parent="A9oRpnt1r4qtiTk0RyAh-78">
          <mxGeometry y="472" width="290" height="26" as="geometry" />
        </mxCell>
        <mxCell id="ZnIZY8vGJmRkA5q2nl4W-43" value="seleccionarUsuario(str):set(DTComentario)" style="text;align=left;verticalAlign=top;spacingLeft=4;spacingRight=4;overflow=hidden;rotatable=0;points=[[0,0.5],[1,0.5]];portConstraint=eastwest;" vertex="1" parent="A9oRpnt1r4qtiTk0RyAh-78">
          <mxGeometry y="498" width="290" height="26" as="geometry" />
        </mxCell>
        <mxCell id="iK8rbPgS4fa-Ig37syLc-6" value="seleccionarProducto(DTProducto)" style="text;align=left;verticalAlign=top;spacingLeft=4;spacingRight=4;overflow=hidden;rotatable=0;points=[[0,0.5],[1,0.5]];portConstraint=eastwest;" vertex="1" parent="A9oRpnt1r4qtiTk0RyAh-78">
          <mxGeometry y="524" width="290" height="26" as="geometry" />
        </mxCell>
        <mxCell id="ZnIZY8vGJmRkA5q2nl4W-42" value="borraComentario(DTComentario)" style="text;align=left;verticalAlign=top;spacingLeft=4;spacingRight=4;overflow=hidden;rotatable=0;points=[[0,0.5],[1,0.5]];portConstraint=eastwest;" vertex="1" parent="A9oRpnt1r4qtiTk0RyAh-78">
          <mxGeometry y="550" width="290" height="26" as="geometry" />
        </mxCell>
        <mxCell id="iK8rbPgS4fa-Ig37syLc-7" value="agregarComentario(str)" style="text;align=left;verticalAlign=top;spacingLeft=4;spacingRight=4;overflow=hidden;rotatable=0;points=[[0,0.5],[1,0.5]];portConstraint=eastwest;" vertex="1" parent="A9oRpnt1r4qtiTk0RyAh-78">
          <mxGeometry y="576" width="290" height="26" as="geometry" />
        </mxCell>
        <mxCell id="iK8rbPgS4fa-Ig37syLc-8" value="listarComentario():set(DTComentario)" style="text;align=left;verticalAlign=top;spacingLeft=4;spacingRight=4;overflow=hidden;rotatable=0;points=[[0,0.5],[1,0.5]];portConstraint=eastwest;" vertex="1" parent="A9oRpnt1r4qtiTk0RyAh-78">
          <mxGeometry y="602" width="290" height="26" as="geometry" />
        </mxCell>
        <mxCell id="iK8rbPgS4fa-Ig37syLc-10" value="seleccionarComentario(DTComentario)" style="text;align=left;verticalAlign=top;spacingLeft=4;spacingRight=4;overflow=hidden;rotatable=0;points=[[0,0.5],[1,0.5]];portConstraint=eastwest;" vertex="1" parent="A9oRpnt1r4qtiTk0RyAh-78">
          <mxGeometry y="628" width="290" height="26" as="geometry" />
        </mxCell>
        <mxCell id="iK8rbPgS4fa-Ig37syLc-9" value="agregarComentario(str)" style="text;align=left;verticalAlign=top;spacingLeft=4;spacingRight=4;overflow=hidden;rotatable=0;points=[[0,0.5],[1,0.5]];portConstraint=eastwest;" vertex="1" parent="A9oRpnt1r4qtiTk0RyAh-78">
          <mxGeometry y="654" width="290" height="26" as="geometry" />
        </mxCell>
        <mxCell id="ZnIZY8vGJmRkA5q2nl4W-41" value="seleccionarNickname(str):set(DTProducto)" style="text;align=left;verticalAlign=top;spacingLeft=4;spacingRight=4;overflow=hidden;rotatable=0;points=[[0,0.5],[1,0.5]];portConstraint=eastwest;" vertex="1" parent="A9oRpnt1r4qtiTk0RyAh-78">
          <mxGeometry y="680" width="290" height="26" as="geometry" />
        </mxCell>
        <mxCell id="ZnIZY8vGJmRkA5q2nl4W-40" value="seleccionarProducto(DTProducto):set(DTCompra)" style="text;align=left;verticalAlign=top;spacingLeft=4;spacingRight=4;overflow=hidden;rotatable=0;points=[[0,0.5],[1,0.5]];portConstraint=eastwest;" vertex="1" parent="A9oRpnt1r4qtiTk0RyAh-78">
          <mxGeometry y="706" width="290" height="26" as="geometry" />
        </mxCell>
        <mxCell id="ZnIZY8vGJmRkA5q2nl4W-39" value="seleccionarCompra(DTCompra)" style="text;align=left;verticalAlign=top;spacingLeft=4;spacingRight=4;overflow=hidden;rotatable=0;points=[[0,0.5],[1,0.5]];portConstraint=eastwest;" vertex="1" parent="A9oRpnt1r4qtiTk0RyAh-78">
          <mxGeometry y="732" width="290" height="26" as="geometry" />
        </mxCell>
        <mxCell id="A9oRpnt1r4qtiTk0RyAh-83" value="" style="endArrow=open;shadow=0;strokeWidth=1;rounded=0;endFill=1;elbow=vertical;entryX=0;entryY=0.5;entryDx=0;entryDy=0;exitX=1;exitY=0.5;exitDx=0;exitDy=0;" edge="1" parent="WIyWlLk6GJQsqaUBKTNV-1" target="zkfFHV4jXpPFQw0GAbJ--2" source="ZnIZY8vGJmRkA5q2nl4W-31">
          <mxGeometry x="0.5" y="41" relative="1" as="geometry">
            <mxPoint x="-51" y="261" as="sourcePoint" />
            <mxPoint x="63" y="264.47" as="targetPoint" />
            <mxPoint x="-40" y="32" as="offset" />
          </mxGeometry>
        </mxCell>
        <mxCell id="A9oRpnt1r4qtiTk0RyAh-85" value="*" style="resizable=0;align=right;verticalAlign=bottom;labelBackgroundColor=none;fontSize=12;" connectable="0" vertex="1" parent="A9oRpnt1r4qtiTk0RyAh-83">
          <mxGeometry x="1" relative="1" as="geometry">
            <mxPoint x="-7" y="4" as="offset" />
          </mxGeometry>
        </mxCell>
        <mxCell id="A9oRpnt1r4qtiTk0RyAh-91" value="" style="endArrow=open;shadow=0;strokeWidth=1;rounded=0;curved=0;endFill=1;edgeStyle=elbowEdgeStyle;elbow=vertical;entryX=0.5;entryY=1;entryDx=0;entryDy=0;exitX=0.5;exitY=0;exitDx=0;exitDy=0;startArrow=open;startFill=0;" edge="1" parent="WIyWlLk6GJQsqaUBKTNV-1" source="A9oRpnt1r4qtiTk0RyAh-15" target="zkfFHV4jXpPFQw0GAbJ--17">
          <mxGeometry x="0.5" y="41" relative="1" as="geometry">
            <mxPoint x="609" y="386" as="sourcePoint" />
            <mxPoint x="876" y="386" as="targetPoint" />
            <mxPoint x="-40" y="32" as="offset" />
            <Array as="points">
              <mxPoint x="669" y="505" />
            </Array>
          </mxGeometry>
        </mxCell>
        <mxCell id="A9oRpnt1r4qtiTk0RyAh-92" value="1" style="resizable=0;align=left;verticalAlign=bottom;labelBackgroundColor=none;fontSize=12;" connectable="0" vertex="1" parent="A9oRpnt1r4qtiTk0RyAh-91">
          <mxGeometry x="-1" relative="1" as="geometry">
            <mxPoint as="offset" />
          </mxGeometry>
        </mxCell>
        <mxCell id="A9oRpnt1r4qtiTk0RyAh-93" value="*" style="resizable=0;align=right;verticalAlign=bottom;labelBackgroundColor=none;fontSize=12;" connectable="0" vertex="1" parent="A9oRpnt1r4qtiTk0RyAh-91">
          <mxGeometry x="1" relative="1" as="geometry">
            <mxPoint x="13" y="20" as="offset" />
          </mxGeometry>
        </mxCell>
        <mxCell id="A9oRpnt1r4qtiTk0RyAh-94" value="" style="endArrow=open;shadow=0;strokeWidth=1;rounded=0;endFill=1;edgeStyle=elbowEdgeStyle;exitX=1;exitY=0.5;exitDx=0;exitDy=0;startArrow=open;startFill=0;" edge="1" parent="WIyWlLk6GJQsqaUBKTNV-1" source="A9oRpnt1r4qtiTk0RyAh-56">
          <mxGeometry x="0.5" y="41" relative="1" as="geometry">
            <mxPoint x="519" y="856" as="sourcePoint" />
            <mxPoint x="619" y="806" as="targetPoint" />
            <mxPoint x="-40" y="32" as="offset" />
          </mxGeometry>
        </mxCell>
        <mxCell id="A9oRpnt1r4qtiTk0RyAh-95" value="*" style="resizable=0;align=left;verticalAlign=bottom;labelBackgroundColor=none;fontSize=12;" connectable="0" vertex="1" parent="A9oRpnt1r4qtiTk0RyAh-94">
          <mxGeometry x="-1" relative="1" as="geometry">
            <mxPoint y="4" as="offset" />
          </mxGeometry>
        </mxCell>
        <mxCell id="A9oRpnt1r4qtiTk0RyAh-96" value="1" style="resizable=0;align=right;verticalAlign=bottom;labelBackgroundColor=none;fontSize=12;" connectable="0" vertex="1" parent="A9oRpnt1r4qtiTk0RyAh-94">
          <mxGeometry x="1" relative="1" as="geometry">
            <mxPoint x="-7" y="4" as="offset" />
          </mxGeometry>
        </mxCell>
        <mxCell id="A9oRpnt1r4qtiTk0RyAh-97" value="" style="endArrow=open;shadow=0;strokeWidth=1;rounded=0;endFill=1;exitX=0;exitY=0.5;exitDx=0;exitDy=0;entryX=0.999;entryY=0.275;entryDx=0;entryDy=0;startArrow=open;startFill=0;entryPerimeter=0;" edge="1" parent="WIyWlLk6GJQsqaUBKTNV-1" source="A9oRpnt1r4qtiTk0RyAh-56" target="A9oRpnt1r4qtiTk0RyAh-52">
          <mxGeometry x="0.5" y="41" relative="1" as="geometry">
            <mxPoint x="419" y="1094" as="sourcePoint" />
            <mxPoint x="579" y="946" as="targetPoint" />
            <mxPoint x="-40" y="32" as="offset" />
          </mxGeometry>
        </mxCell>
        <mxCell id="A9oRpnt1r4qtiTk0RyAh-98" value="*" style="resizable=0;align=left;verticalAlign=bottom;labelBackgroundColor=none;fontSize=12;" connectable="0" vertex="1" parent="A9oRpnt1r4qtiTk0RyAh-97">
          <mxGeometry x="-1" relative="1" as="geometry">
            <mxPoint x="-10" y="4" as="offset" />
          </mxGeometry>
        </mxCell>
        <mxCell id="A9oRpnt1r4qtiTk0RyAh-99" value="1" style="resizable=0;align=right;verticalAlign=bottom;labelBackgroundColor=none;fontSize=12;" connectable="0" vertex="1" parent="A9oRpnt1r4qtiTk0RyAh-97">
          <mxGeometry x="1" relative="1" as="geometry">
            <mxPoint x="10" y="-1" as="offset" />
          </mxGeometry>
        </mxCell>
        <mxCell id="A9oRpnt1r4qtiTk0RyAh-100" value="" style="endArrow=open;shadow=0;strokeWidth=1;rounded=0;endFill=1;exitX=1;exitY=0.5;exitDx=0;exitDy=0;startArrow=open;startFill=0;entryX=0.01;entryY=0.92;entryDx=0;entryDy=0;entryPerimeter=0;" edge="1" parent="WIyWlLk6GJQsqaUBKTNV-1" source="A9oRpnt1r4qtiTk0RyAh-25" target="A9oRpnt1r4qtiTk0RyAh-45">
          <mxGeometry x="0.5" y="41" relative="1" as="geometry">
            <mxPoint x="839" y="1004" as="sourcePoint" />
            <mxPoint x="879" y="706" as="targetPoint" />
            <mxPoint x="-40" y="32" as="offset" />
          </mxGeometry>
        </mxCell>
        <mxCell id="A9oRpnt1r4qtiTk0RyAh-101" value="1" style="resizable=0;align=left;verticalAlign=bottom;labelBackgroundColor=none;fontSize=12;" connectable="0" vertex="1" parent="A9oRpnt1r4qtiTk0RyAh-100">
          <mxGeometry x="-1" relative="1" as="geometry">
            <mxPoint x="10" y="3" as="offset" />
          </mxGeometry>
        </mxCell>
        <mxCell id="A9oRpnt1r4qtiTk0RyAh-102" value="*" style="resizable=0;align=right;verticalAlign=bottom;labelBackgroundColor=none;fontSize=12;" connectable="0" vertex="1" parent="A9oRpnt1r4qtiTk0RyAh-100">
          <mxGeometry x="1" relative="1" as="geometry">
            <mxPoint x="-7" y="4" as="offset" />
          </mxGeometry>
        </mxCell>
        <mxCell id="A9oRpnt1r4qtiTk0RyAh-104" value="" style="endArrow=open;shadow=0;strokeWidth=1;rounded=0;endFill=1;exitX=0.75;exitY=0;exitDx=0;exitDy=0;startArrow=open;startFill=0;" edge="1" parent="WIyWlLk6GJQsqaUBKTNV-1" source="A9oRpnt1r4qtiTk0RyAh-43">
          <mxGeometry x="0.5" y="41" relative="1" as="geometry">
            <mxPoint x="989" y="864" as="sourcePoint" />
            <mxPoint x="1099" y="536" as="targetPoint" />
            <mxPoint x="-40" y="32" as="offset" />
          </mxGeometry>
        </mxCell>
        <mxCell id="A9oRpnt1r4qtiTk0RyAh-105" value="*" style="resizable=0;align=left;verticalAlign=bottom;labelBackgroundColor=none;fontSize=12;" connectable="0" vertex="1" parent="A9oRpnt1r4qtiTk0RyAh-104">
          <mxGeometry x="-1" relative="1" as="geometry">
            <mxPoint x="8" as="offset" />
          </mxGeometry>
        </mxCell>
        <mxCell id="A9oRpnt1r4qtiTk0RyAh-106" value="1" style="resizable=0;align=right;verticalAlign=bottom;labelBackgroundColor=none;fontSize=12;" connectable="0" vertex="1" parent="A9oRpnt1r4qtiTk0RyAh-104">
          <mxGeometry x="1" relative="1" as="geometry">
            <mxPoint x="-7" y="20" as="offset" />
          </mxGeometry>
        </mxCell>
        <mxCell id="A9oRpnt1r4qtiTk0RyAh-110" value="" style="endArrow=open;shadow=0;strokeWidth=1;rounded=0;endFill=0;edgeStyle=orthogonalEdgeStyle;exitX=0.25;exitY=1;exitDx=0;exitDy=0;startArrow=open;startFill=0;elbow=vertical;entryX=0;entryY=0.5;entryDx=0;entryDy=0;" edge="1" parent="WIyWlLk6GJQsqaUBKTNV-1" source="zkfFHV4jXpPFQw0GAbJ--13" target="A9oRpnt1r4qtiTk0RyAh-24">
          <mxGeometry x="0.5" y="41" relative="1" as="geometry">
            <mxPoint x="309.86" y="746" as="sourcePoint" />
            <mxPoint x="579" y="666" as="targetPoint" />
            <mxPoint x="-40" y="32" as="offset" />
          </mxGeometry>
        </mxCell>
        <mxCell id="A9oRpnt1r4qtiTk0RyAh-111" value="1" style="resizable=0;align=left;verticalAlign=bottom;labelBackgroundColor=none;fontSize=12;" connectable="0" vertex="1" parent="A9oRpnt1r4qtiTk0RyAh-110">
          <mxGeometry x="-1" relative="1" as="geometry">
            <mxPoint x="10" y="20" as="offset" />
          </mxGeometry>
        </mxCell>
        <mxCell id="A9oRpnt1r4qtiTk0RyAh-112" value="*" style="resizable=0;align=right;verticalAlign=bottom;labelBackgroundColor=none;fontSize=12;" connectable="0" vertex="1" parent="A9oRpnt1r4qtiTk0RyAh-110">
          <mxGeometry x="1" relative="1" as="geometry">
            <mxPoint x="-7" y="4" as="offset" />
          </mxGeometry>
        </mxCell>
        <mxCell id="A9oRpnt1r4qtiTk0RyAh-114" value="" style="endArrow=open;shadow=0;strokeWidth=1;rounded=0;endFill=0;exitX=0.5;exitY=1;exitDx=0;exitDy=0;startArrow=open;startFill=0;elbow=vertical;" edge="1" parent="WIyWlLk6GJQsqaUBKTNV-1" source="zkfFHV4jXpPFQw0GAbJ--6">
          <mxGeometry x="0.5" y="41" relative="1" as="geometry">
            <mxPoint x="-38" y="646" as="sourcePoint" />
            <mxPoint x="99" y="766" as="targetPoint" />
            <mxPoint x="-40" y="32" as="offset" />
          </mxGeometry>
        </mxCell>
        <mxCell id="A9oRpnt1r4qtiTk0RyAh-115" value="1" style="resizable=0;align=left;verticalAlign=bottom;labelBackgroundColor=none;fontSize=12;" connectable="0" vertex="1" parent="A9oRpnt1r4qtiTk0RyAh-114">
          <mxGeometry x="-1" relative="1" as="geometry">
            <mxPoint x="10" y="20" as="offset" />
          </mxGeometry>
        </mxCell>
        <mxCell id="A9oRpnt1r4qtiTk0RyAh-116" value="*" style="resizable=0;align=right;verticalAlign=bottom;labelBackgroundColor=none;fontSize=12;" connectable="0" vertex="1" parent="A9oRpnt1r4qtiTk0RyAh-114">
          <mxGeometry x="1" relative="1" as="geometry">
            <mxPoint x="-7" y="4" as="offset" />
          </mxGeometry>
        </mxCell>
        <mxCell id="A9oRpnt1r4qtiTk0RyAh-117" value="" style="endArrow=open;shadow=0;strokeWidth=1;rounded=0;endFill=1;entryX=0.005;entryY=0.923;entryDx=0;entryDy=0;exitX=0.498;exitY=1;exitDx=0;exitDy=0;exitPerimeter=0;entryPerimeter=0;" edge="1" parent="WIyWlLk6GJQsqaUBKTNV-1" source="ZnIZY8vGJmRkA5q2nl4W-39" target="iK8rbPgS4fa-Ig37syLc-1">
          <mxGeometry x="0.5" y="41" relative="1" as="geometry">
            <mxPoint x="-196" y="931" as="sourcePoint" />
            <mxPoint x="16" y="916" as="targetPoint" />
            <mxPoint x="-40" y="32" as="offset" />
            <Array as="points">
              <mxPoint x="-196" y="916" />
              <mxPoint x="-41" y="916" />
            </Array>
          </mxGeometry>
        </mxCell>
        <mxCell id="A9oRpnt1r4qtiTk0RyAh-118" value="*" style="resizable=0;align=right;verticalAlign=bottom;labelBackgroundColor=none;fontSize=12;" connectable="0" vertex="1" parent="A9oRpnt1r4qtiTk0RyAh-117">
          <mxGeometry x="1" relative="1" as="geometry">
            <mxPoint x="-7" y="4" as="offset" />
          </mxGeometry>
        </mxCell>
        <mxCell id="A9oRpnt1r4qtiTk0RyAh-119" value="" style="endArrow=open;shadow=0;strokeWidth=1;rounded=0;endFill=1;exitX=0.24;exitY=1.015;exitDx=0;exitDy=0;exitPerimeter=0;entryX=0.492;entryY=1.008;entryDx=0;entryDy=0;entryPerimeter=0;" edge="1" parent="WIyWlLk6GJQsqaUBKTNV-1" source="ZnIZY8vGJmRkA5q2nl4W-39" target="QMvfmKs35bcrzf20AI7U-1">
          <mxGeometry x="0.5" y="41" relative="1" as="geometry">
            <mxPoint x="-271" y="856" as="sourcePoint" />
            <mxPoint x="729" y="983" as="targetPoint" />
            <mxPoint x="-40" y="32" as="offset" />
            <Array as="points">
              <mxPoint x="-269.41999999999996" y="1046" />
              <mxPoint x="297.58" y="1046" />
              <mxPoint x="727.58" y="1046" />
            </Array>
          </mxGeometry>
        </mxCell>
        <mxCell id="A9oRpnt1r4qtiTk0RyAh-120" value="*" style="resizable=0;align=right;verticalAlign=bottom;labelBackgroundColor=none;fontSize=12;" connectable="0" vertex="1" parent="A9oRpnt1r4qtiTk0RyAh-119">
          <mxGeometry x="1" relative="1" as="geometry">
            <mxPoint x="12" y="23" as="offset" />
          </mxGeometry>
        </mxCell>
        <mxCell id="dkA0wBcAmrJYL8cCkU2q-0" value="&lt;div style=&quot;text-align: left;&quot;&gt;&lt;br&gt;&lt;/div&gt;" style="text;html=1;align=center;verticalAlign=middle;resizable=0;points=[];autosize=1;strokeColor=none;fillColor=none;fontFamily=Helvetica;fontSize=12;fontColor=default;" vertex="1" parent="WIyWlLk6GJQsqaUBKTNV-1">
          <mxGeometry x="-423" y="220" width="20" height="30" as="geometry" />
        </mxCell>
        <mxCell id="QMvfmKs35bcrzf20AI7U-4" value="" style="endArrow=open;shadow=0;strokeWidth=1;rounded=0;endFill=0;edgeStyle=orthogonalEdgeStyle;exitX=1;exitY=0.5;exitDx=0;exitDy=0;startArrow=open;startFill=0;elbow=vertical;" edge="1" parent="WIyWlLk6GJQsqaUBKTNV-1" source="zkfFHV4jXpPFQw0GAbJ--14">
          <mxGeometry x="0.5" y="41" relative="1" as="geometry">
            <mxPoint x="702" y="505" as="sourcePoint" />
            <mxPoint x="922" y="475" as="targetPoint" />
            <mxPoint x="-40" y="32" as="offset" />
          </mxGeometry>
        </mxCell>
        <mxCell id="QMvfmKs35bcrzf20AI7U-5" value="1" style="resizable=0;align=left;verticalAlign=bottom;labelBackgroundColor=none;fontSize=12;" connectable="0" vertex="1" parent="QMvfmKs35bcrzf20AI7U-4">
          <mxGeometry x="-1" relative="1" as="geometry">
            <mxPoint x="10" y="20" as="offset" />
          </mxGeometry>
        </mxCell>
        <mxCell id="QMvfmKs35bcrzf20AI7U-6" value="*" style="resizable=0;align=right;verticalAlign=bottom;labelBackgroundColor=none;fontSize=12;" connectable="0" vertex="1" parent="QMvfmKs35bcrzf20AI7U-4">
          <mxGeometry x="1" relative="1" as="geometry">
            <mxPoint x="-7" y="4" as="offset" />
          </mxGeometry>
        </mxCell>
        <mxCell id="QMvfmKs35bcrzf20AI7U-7" value="&lt;font style=&quot;font-size: 40px;&quot;&gt;&lt;b&gt;Diagrama de Clase&lt;/b&gt;&lt;/font&gt;" style="text;html=1;align=center;verticalAlign=middle;resizable=0;points=[];autosize=1;strokeColor=none;fillColor=none;fontSize=16;" vertex="1" parent="WIyWlLk6GJQsqaUBKTNV-1">
          <mxGeometry x="209" y="11" width="385" height="66" as="geometry" />
        </mxCell>
        <mxCell id="gTsc274xKVP91jpOdxPg-0" value="" style="endArrow=open;shadow=0;strokeWidth=1;rounded=0;endFill=1;elbow=vertical;exitX=1.008;exitY=0.03;exitDx=0;exitDy=0;exitPerimeter=0;entryX=0.5;entryY=0;entryDx=0;entryDy=0;" edge="1" parent="WIyWlLk6GJQsqaUBKTNV-1" source="A9oRpnt1r4qtiTk0RyAh-78" target="A9oRpnt1r4qtiTk0RyAh-36">
          <mxGeometry x="0.5" y="41" relative="1" as="geometry">
            <mxPoint x="-22" y="147" as="sourcePoint" />
            <mxPoint x="517" y="111" as="targetPoint" />
            <mxPoint x="-40" y="32" as="offset" />
            <Array as="points">
              <mxPoint x="1044" y="111" />
            </Array>
          </mxGeometry>
        </mxCell>
        <mxCell id="gTsc274xKVP91jpOdxPg-1" value="*" style="resizable=0;align=right;verticalAlign=bottom;labelBackgroundColor=none;fontSize=12;" connectable="0" vertex="1" parent="gTsc274xKVP91jpOdxPg-0">
          <mxGeometry x="1" relative="1" as="geometry">
            <mxPoint x="-7" y="4" as="offset" />
          </mxGeometry>
        </mxCell>
      </root>
    </mxGraphModel>
  </diagram>
</mxfile>
